<svg xmlns="http://www.w3.org/2000/svg" xmlns:xlink="http://www.w3.org/1999/xlink" contentStyleType="text/css" data-diagram-type="SEQUENCE" height="586px" preserveAspectRatio="none" style="width:521px;height:586px;background:#FFFFFF;" version="1.1" viewBox="0 0 521 586" width="521px" zoomAndPan="magnify"><defs/><g><rect fill="#FFFFFF" fill-opacity="0.00000" height="191.9297" style="stroke:#000000;stroke-width:1.5;" width="475.4111" x="10" y="53.2969"/><rect fill="#FFFFFF" fill-opacity="0.00000" height="302.9375" style="stroke:#000000;stroke-width:1.5;" width="338.4881" x="176.923" y="259.2266"/><rect fill="#FFFFFF" fill-opacity="0.00000" height="271.8047" style="stroke:#000000;stroke-width:1.5;" width="318.4881" x="186.923" y="283.3594"/><rect fill="#FFFFFF" fill-opacity="0.00000" height="211.5391" style="stroke:#000000;stroke-width:1.5;" width="298.4881" x="196.923" y="336.625"/><rect fill="#FFFFFF" fill-opacity="0.00000" height="46.2656" style="stroke:#000000;stroke-width:1.5;" width="278.4881" x="206.923" y="419.8281"/><rect fill="#FFFFFF" fill-opacity="0.00000" height="46.2656" style="stroke:#000000;stroke-width:1.5;" width="278.4881" x="206.923" y="494.8984"/><g><title>&#29992;&#25143;</title><rect fill="#FFFFFF" fill-opacity="0.00000" height="542.8672" width="8" x="36.9999" y="36.2969"/><line style="stroke:#181818;stroke-width:0.5;stroke-dasharray:5.0,5.0;" x1="40" x2="40" y1="36.2969" y2="579.1641"/></g><g><title>&#24212;&#29992;</title><rect fill="#FFFFFF" fill-opacity="0.00000" height="542.8672" width="8" x="233.923" y="36.2969"/><line style="stroke:#181818;stroke-width:0.5;stroke-dasharray:5.0,5.0;" x1="236.923" x2="236.923" y1="36.2969" y2="579.1641"/></g><g><title>&#35748;&#35777;&#26381;&#21153;&#22120;</title><rect fill="#FFFFFF" fill-opacity="0.00000" height="542.8672" width="8" x="429.4113" y="36.2969"/><line style="stroke:#181818;stroke-width:0.5;stroke-dasharray:5.0,5.0;" x1="432.4114" x2="432.4114" y1="36.2969" y2="579.1641"/></g><rect fill="#E2E2F0" height="30.2969" rx="2.5" ry="2.5" style="stroke:#181818;stroke-width:0.5;" width="41.9999" x="20" y="5"/><text fill="#000000" font-family="sans-serif" font-size="14" lengthAdjust="spacing" textLength="27.9999" x="27" y="24.9951">&#29992;&#25143;</text><rect fill="#E2E2F0" height="30.2969" rx="2.5" ry="2.5" style="stroke:#181818;stroke-width:0.5;" width="41.9999" x="216.923" y="5"/><text fill="#000000" font-family="sans-serif" font-size="14" lengthAdjust="spacing" textLength="27.9999" x="223.923" y="24.9951">&#24212;&#29992;</text><rect fill="#E2E2F0" height="30.2969" rx="2.5" ry="2.5" style="stroke:#181818;stroke-width:0.5;" width="83.9997" x="391.4114" y="5"/><text fill="#000000" font-family="sans-serif" font-size="14" lengthAdjust="spacing" textLength="69.9997" x="398.4114" y="24.9951">&#35748;&#35777;&#26381;&#21153;&#22120;</text><path d="M10,53.2969 L151.5099,53.2969 L151.5099,60.4297 L141.5099,70.4297 L10,70.4297 L10,53.2969 " fill="#EEEEEE" style="stroke:#000000;stroke-width:1.5;"/><rect fill="#FFFFFF" fill-opacity="0.00000" height="191.9297" style="stroke:#000000;stroke-width:1.5;" width="475.4111" x="10" y="53.2969"/><text fill="#000000" font-family="sans-serif" font-size="13" font-weight="bold" lengthAdjust="spacing" textLength="96.5099" x="25" y="66.3638">1. &#35831;&#27714;&#29992;&#25143;&#25480;&#26435;</text><polygon fill="#181818" points="421.4113,87.5625,431.4113,91.5625,421.4113,95.5625,425.4113,91.5625" style="stroke:#181818;stroke-width:1;"/><line style="stroke:#181818;stroke-width:1;" x1="237.923" x2="427.4113" y1="91.5625" y2="91.5625"/><text fill="#000000" font-family="sans-serif" font-size="13" lengthAdjust="spacing" textLength="143.0002" x="244.923" y="86.4966">&#35831;&#27714;&#35774;&#22791;&#20195;&#30721;&#21644;&#29992;&#25143;&#20195;&#30721;</text><polygon fill="#181818" points="248.923,116.6953,238.923,120.6953,248.923,124.6953,244.923,120.6953" style="stroke:#181818;stroke-width:1;"/><line style="stroke:#181818;stroke-width:1;" x1="242.923" x2="432.4113" y1="120.6953" y2="120.6953"/><text fill="#000000" font-family="sans-serif" font-size="13" lengthAdjust="spacing" textLength="143.0002" x="283.4111" y="115.6294">&#36820;&#22238;&#35774;&#22791;&#20195;&#30721;&#21644;&#29992;&#25143;&#20195;&#30721;</text><polygon fill="#181818" points="51.9999,145.8281,41.9999,149.8281,51.9999,153.8281,47.9999,149.8281" style="stroke:#181818;stroke-width:1;"/><line style="stroke:#181818;stroke-width:1;" x1="45.9999" x2="236.923" y1="149.8281" y2="149.8281"/><text fill="#000000" font-family="sans-serif" font-size="13" lengthAdjust="spacing" textLength="172.923" x="57.9999" y="144.7622">&#23637;&#31034;&#29992;&#25143;&#20195;&#30721;&#21644;&#25480;&#26435;&#39029;&#38754; URL</text><polygon fill="#181818" points="421.4113,174.9609,431.4113,178.9609,421.4113,182.9609,425.4113,178.9609" style="stroke:#181818;stroke-width:1;"/><line style="stroke:#181818;stroke-width:1;" x1="40.9999" x2="427.4113" y1="178.9609" y2="178.9609"/><text fill="#000000" font-family="sans-serif" font-size="13" lengthAdjust="spacing" textLength="169.0002" x="47.9999" y="173.895">&#25171;&#24320;&#25480;&#26435;&#39029;&#38754;&#65292;&#36755;&#20837;&#29992;&#25143;&#20195;&#30721;</text><polygon fill="#181818" points="51.9999,204.0938,41.9999,208.0938,51.9999,212.0938,47.9999,208.0938" style="stroke:#181818;stroke-width:1;"/><line style="stroke:#181818;stroke-width:1;" x1="45.9999" x2="432.4113" y1="208.0938" y2="208.0938"/><text fill="#000000" font-family="sans-serif" font-size="13" lengthAdjust="spacing" textLength="104.0001" x="322.4111" y="203.0278">&#35810;&#38382;&#29992;&#25143;&#25480;&#26435;&#24847;&#21521;</text><polygon fill="#181818" points="421.4113,233.2266,431.4113,237.2266,421.4113,241.2266,425.4113,237.2266" style="stroke:#181818;stroke-width:1;"/><line style="stroke:#181818;stroke-width:1;" x1="40.9999" x2="427.4113" y1="237.2266" y2="237.2266"/><text fill="#000000" font-family="sans-serif" font-size="13" lengthAdjust="spacing" textLength="78.0001" x="47.9999" y="232.1606">&#29992;&#25143;&#21516;&#24847;&#25480;&#26435;</text><path d="M176.923,259.2266 L416.8216,259.2266 L416.8216,266.3594 L406.8216,276.3594 L176.923,276.3594 L176.923,259.2266 " fill="#EEEEEE" style="stroke:#000000;stroke-width:1.5;"/><rect fill="#FFFFFF" fill-opacity="0.00000" height="302.9375" style="stroke:#000000;stroke-width:1.5;" width="338.4881" x="176.923" y="259.2266"/><text fill="#000000" font-family="sans-serif" font-size="13" font-weight="bold" lengthAdjust="spacing" textLength="194.8986" x="191.923" y="272.2935">2. &#26597;&#35810;&#25480;&#26435;&#32467;&#26524; &amp; &#33719;&#21462;&#35775;&#38382;&#20196;&#29260;</text><path d="M186.923,283.3594 L263.547,283.3594 L263.547,290.4922 L253.547,300.4922 L186.923,300.4922 L186.923,283.3594 " fill="#EEEEEE" style="stroke:#000000;stroke-width:1.5;"/><rect fill="#FFFFFF" fill-opacity="0.00000" height="271.8047" style="stroke:#000000;stroke-width:1.5;" width="318.4881" x="186.923" y="283.3594"/><text fill="#000000" font-family="sans-serif" font-size="13" font-weight="bold" lengthAdjust="spacing" textLength="31.624" x="201.923" y="296.4263">loop</text><polygon fill="#181818" points="421.4113,317.625,431.4113,321.625,421.4113,325.625,425.4113,321.625" style="stroke:#181818;stroke-width:1;"/><line style="stroke:#181818;stroke-width:1;" x1="237.923" x2="427.4113" y1="321.625" y2="321.625"/><text fill="#000000" font-family="sans-serif" font-size="13" lengthAdjust="spacing" textLength="78.0001" x="244.923" y="316.5591">&#21457;&#36865;&#20196;&#29260;&#35831;&#27714;</text><path d="M196.923,336.625 L261.3659,336.625 L261.3659,343.7578 L251.3659,353.7578 L196.923,353.7578 L196.923,336.625 " fill="#EEEEEE" style="stroke:#000000;stroke-width:1.5;"/><rect fill="#FFFFFF" fill-opacity="0.00000" height="211.5391" style="stroke:#000000;stroke-width:1.5;" width="298.4881" x="196.923" y="336.625"/><text fill="#000000" font-family="sans-serif" font-size="13" font-weight="bold" lengthAdjust="spacing" textLength="19.4429" x="211.923" y="349.6919">alt</text><text fill="#000000" font-family="sans-serif" font-size="11" font-weight="bold" lengthAdjust="spacing" textLength="98.0541" x="276.3659" y="348.8354">[&#29992;&#25143;&#23578;&#26410;&#23436;&#25104;&#25480;&#26435;]</text><polygon fill="#181818" points="248.923,386.0234,238.923,390.0234,248.923,394.0234,244.923,390.0234" style="stroke:#181818;stroke-width:1;"/><line style="stroke:#181818;stroke-width:1;" x1="242.923" x2="432.4113" y1="390.0234" y2="390.0234"/><text fill="#000000" font-family="sans-serif" font-size="13" lengthAdjust="spacing" textLength="78.0001" x="254.923" y="369.8247">&#36820;&#22238;&#38169;&#35823;&#21709;&#24212;</text><text fill="#000000" font-family="sans-serif" font-size="13" lengthAdjust="spacing" textLength="171.4883" x="254.923" y="384.9575">&#65288;authorization_pending&#65289;</text><line style="stroke:#000000;stroke-width:1;stroke-dasharray:2.0,2.0;" x1="196.923" x2="495.4111" y1="399.0234" y2="399.0234"/><text fill="#000000" font-family="sans-serif" font-size="11" font-weight="bold" lengthAdjust="spacing" textLength="131.0538" x="201.923" y="409.2339">[&#29992;&#25143;&#25298;&#32477;&#25480;&#26435;&#25110;&#35831;&#27714;&#26377;&#35823;]</text><path d="M206.923,419.8281 L293.8747,419.8281 L293.8747,426.9609 L283.8747,436.9609 L206.923,436.9609 L206.923,419.8281 " fill="#EEEEEE" style="stroke:#000000;stroke-width:1.5;"/><rect fill="#FFFFFF" fill-opacity="0.00000" height="46.2656" style="stroke:#000000;stroke-width:1.5;" width="278.4881" x="206.923" y="419.8281"/><text fill="#000000" font-family="sans-serif" font-size="13" font-weight="bold" lengthAdjust="spacing" textLength="41.9517" x="221.923" y="432.895">break</text><polygon fill="#181818" points="248.923,454.0938,238.923,458.0938,248.923,462.0938,244.923,458.0938" style="stroke:#181818;stroke-width:1;"/><line style="stroke:#181818;stroke-width:1;" x1="242.923" x2="432.4113" y1="458.0938" y2="458.0938"/><text fill="#000000" font-family="sans-serif" font-size="13" lengthAdjust="spacing" textLength="78.0001" x="348.4112" y="453.0278">&#36820;&#22238;&#38169;&#35823;&#21709;&#24212;</text><line style="stroke:#000000;stroke-width:1;stroke-dasharray:2.0,2.0;" x1="196.923" x2="495.4111" y1="474.0938" y2="474.0938"/><text fill="#000000" font-family="sans-serif" font-size="11" font-weight="bold" lengthAdjust="spacing" textLength="87.0542" x="201.923" y="484.3042">[&#29992;&#25143;&#23436;&#25104;&#20102;&#25480;&#26435;]</text><path d="M206.923,494.8984 L293.8747,494.8984 L293.8747,502.0313 L283.8747,512.0313 L206.923,512.0313 L206.923,494.8984 " fill="#EEEEEE" style="stroke:#000000;stroke-width:1.5;"/><rect fill="#FFFFFF" fill-opacity="0.00000" height="46.2656" style="stroke:#000000;stroke-width:1.5;" width="278.4881" x="206.923" y="494.8984"/><text fill="#000000" font-family="sans-serif" font-size="13" font-weight="bold" lengthAdjust="spacing" textLength="41.9517" x="221.923" y="507.9653">break</text><polygon fill="#181818" points="248.923,529.1641,238.923,533.1641,248.923,537.1641,244.923,533.1641" style="stroke:#181818;stroke-width:1;"/><line style="stroke:#181818;stroke-width:1;" x1="242.923" x2="432.4113" y1="533.1641" y2="533.1641"/><text fill="#000000" font-family="sans-serif" font-size="13" lengthAdjust="spacing" textLength="78.0001" x="348.4112" y="528.0981">&#36820;&#22238;&#20196;&#29260;&#21709;&#24212;</text><!--SRC=[VP8zJy907CRt-nGN1pTDT7Gm8OHD5mcRYJdWn8lOrhOanabyBLe51JKge20cng7LmP00mI_3NQyJNy63gx4Quz2X-JrvNlxj6abZkAggPbBT0iOwKJIaemreuCqSLb9u4Hi6ok18bcGKc2OwJfb4LO0GcIH5DAIOSCAhF3EhFG6H0ME9duXsAeAEKVGduKwBktbMFQN73NeZ9P4uoEXgJeCpqv2xRVQsAwtPcSLgUo0Af-Q5PYvWtEdJrj6W- -WzvEc5BQNo5KJY8srKI3ygzAx-dtJi6alCGVfswRKwOIQaCjfllFkr9amiBO1Ougi5AvHfRoSi6FPitY_JWwS_kemIkDlqhvtm9hPVfANpaAc4j6GB4ip6IZeuo-mqPFTFmaKIhrjczIgSXFoiJOjNtFaGxeDkoolO8AkgslV1QF7StybB98y7KDRy2dkzPTKNwjZCAWMHlyxdLswuwzBogVYSoygmPw6SkQRgP1kDVeOLJJGaIcROAm2SDN1Woqukl6ujc6bToLXMBGWdaDGnMlylPJmwP2RR3Jg7GS4_3UI-iC7tyma0]--></g></svg>